# xmcd
#
# Track frame offsets:
#	150
#	12628
#	28758
#	44834
#	69300
#	94281
#	106223
#	117356
#	128860
#	142869
#	156180
#	169446
#	188901
#	210196
#	223151
#	236492
#	250164
#	264124
#	276530
#	294410
#
# Disc length: 4085 seconds
#
# Revision: 0
# Processed by: cddbd v1.5.2PL0 Copyright (c) Steve Scherf et al.
# Submitted via: dBpowerAMP V4.0
#
DISCID=2f0ff314
DTITLE=Various Artist - Ultimate Blues CD1
DYEAR=2009
DGENRE=Blues
TTITLE0=Muddy Waters/Hoochie Coochie Man
TTITLE1=John Mayall feat.Eric Clapton/All Your Love
TTITLE2=Seasick Steve/Rockin Chair
TTITLE3=B.B. King/The Thrill Is Gone
TTITLE4=Free/All Right Now
TTITLE5=Chuck Berry/Johnny B Goode
TTITLE6=John Lee Hooker/Boom Boom
TTITLE7=Johnny Cash/I Walk The Line
TTITLE8=Howlin Wolf/Smokestack Lightning
TTITLE9=Imelda May/Johnny Got A Boom Boom
TTITLE10=Ray Charles/Let The Good Times Roll
TTITLE11=George Thorogood/Who Do You Love
TTITLE12=Lynryd Skynryd/ Sweet Home Alabama
TTITLE13=Billie Holiday/That Ole Devil Called Love
TTITLE14=Muddy Waters/Rollin And Tumblin
TTITLE15=Irma Thomas/I Wish I Knew How It Would Feel To Be Free
TTITLE16=Nina Simone/Work Song
TTITLE17=John Mayall's Bluesbreakers/Dust My Blues
TTITLE18=Steeldrivers/If It Hadn't Been For Love
TTITLE19=B.B. King/Every Day I Have The Blues (Live)
EXTD=
EXTT0=
EXTT1=
EXTT2=
EXTT3=
EXTT4=
EXTT5=
EXTT6=
EXTT7=
EXTT8=
EXTT9=
EXTT10=
EXTT11=
EXTT12=
EXTT13=
EXTT14=
EXTT15=
EXTT16=
EXTT17=
EXTT18=
EXTT19=
PLAYORDER=
